<?xml version="1.0" encoding="utf-8"?>
<!-- Generator: Adobe Illustrator 16.0.0, SVG Export Plug-In . SVG Version: 6.00 Build 0)  -->
<!DOCTYPE svg PUBLIC "-//W3C//DTD SVG 1.1//EN" "http://www.w3.org/Graphics/SVG/1.1/DTD/svg11.dtd">
<svg version="1.1" id="Layer_1" xmlns="http://www.w3.org/2000/svg" xmlns:xlink="http://www.w3.org/1999/xlink" x="0px" y="0px"
	 width="30px" height="23.4px" viewBox="0 0 30 23.4" enable-background="new 0 0 30 23.4" xml:space="preserve">
<path d="M26.7,1.7c-1.8,0-3.3,1.5-3.3,3.3c0,0.7,0.199,1.301,0.5,1.801L17.7,14.7c0.7,0.4,1.399,0.9,1.899,1.5l6.301-8
	c0.3,0.101,0.5,0.101,0.8,0.101c1.8,0,3.3-1.5,3.3-3.301C30,3.2,28.5,1.7,26.7,1.7z M15,16.801c-0.3,0-0.6,0-0.9,0.1L7.9,8.9
	C7.4,9.5,6.7,10,6,10.4l6.2,8c-0.3,0.5-0.4,1.1-0.4,1.7c0,1.8,1.5,3.3,3.3,3.3c1.801,0,3.301-1.5,3.301-3.3S16.8,16.801,15,16.801z
	 M20.9,3.4c0.199-0.8,0.6-1.6,1.1-2.2C19.8,0.4,17.4,0,15,0c-3.5,0-6.8,0.9-9.7,2.5C4.8,2.1,4.1,1.9,3.3,1.9C1.5,1.9,0,3.4,0,5.2
	s1.5,3.3,3.3,3.3S6.6,7,6.6,5.2c0-0.2,0-0.399-0.1-0.6C9.1,3.2,12,2.5,15,2.5C17,2.4,19,2.801,20.9,3.4z"/>
</svg>
